<svg width="55" height="55" viewBox="0 0 55 55" fill="none" xmlns="http://www.w3.org/2000/svg">
<g clip-path="url(#clip0_157_23)">
<path d="M27.5 12.0312C26.3102 12.0312 25.1472 11.6784 24.1579 11.0174C23.1686 10.3564 22.3976 9.41689 21.9423 8.31768C21.487 7.21846 21.3679 6.00892 21.6 4.84201C21.8321 3.67509 22.405 2.60321 23.2463 1.76191C24.0876 0.920608 25.1595 0.347675 26.3264 0.115561C27.4933 -0.116553 28.7029 0.002576 29.8021 0.457884C30.9013 0.913193 31.8408 1.68423 32.5018 2.67349C33.1628 3.66276 33.5156 4.82582 33.5156 6.0156C33.5139 7.61052 32.8796 9.13962 31.7518 10.2674C30.624 11.3952 29.0949 12.0295 27.5 12.0312Z" fill="#9E9EBB"/>
<path d="M46.4062 12.1172L46.3578 12.13L46.3127 12.144C46.2053 12.1741 46.0979 12.2063 45.9904 12.2396C43.9913 12.8261 34.289 15.5611 27.4537 15.5611C21.1019 15.5611 12.2771 13.1978 9.4541 12.3954C9.17314 12.2867 8.88622 12.1942 8.59473 12.1182C6.55371 11.5811 5.15723 13.6544 5.15723 15.5493C5.15723 17.4259 6.84375 18.3197 8.54639 18.961V18.9911L18.7751 22.1858C19.8203 22.5865 20.0996 22.9958 20.236 23.3503C20.6797 24.4879 20.3252 26.7405 20.1995 27.5268L19.5765 32.3608L16.1186 51.2875C16.1078 51.339 16.0981 51.3917 16.0896 51.4454L16.0648 51.5818C15.8156 53.3167 17.0897 55 19.5023 55C21.6078 55 22.537 53.5466 22.9398 51.5689C22.9398 51.5689 25.9477 34.6424 27.4516 34.6424C28.9555 34.6424 32.0535 51.5689 32.0535 51.5689C32.4564 53.5466 33.3855 55 35.491 55C37.9102 55 39.1842 53.3091 38.9285 51.5689C38.906 51.4207 38.8791 51.2746 38.8469 51.1328L35.3417 32.363L34.7197 27.529C34.2696 24.7134 34.6316 23.7832 34.7541 23.5651C34.7574 23.56 34.7603 23.5546 34.7627 23.549C34.8787 23.3341 35.4072 22.8529 36.6404 22.3899L46.2311 19.0373C46.29 19.0216 46.348 19.0029 46.4051 18.9814C48.1238 18.3369 49.8426 17.4453 49.8426 15.5514C49.8426 13.6576 48.4472 11.5811 46.4062 12.1172Z" fill="#9E9EBB"/>
</g>
<defs>
<clipPath id="clip0_157_23">
<rect width="55" height="55" fill="white"/>
</clipPath>
</defs>
</svg>
