<svg width="48" height="55" viewBox="0 0 48 55" fill="none" xmlns="http://www.w3.org/2000/svg">
<g clip-path="url(#clip0_125_88)">
<path d="M24 27.5C27.6373 27.5 31.1255 26.0513 33.6975 23.4727C36.2694 20.8941 37.7143 17.3967 37.7143 13.75C37.7143 10.1033 36.2694 6.60591 33.6975 4.02728C31.1255 1.44866 27.6373 0 24 0C20.3627 0 16.8745 1.44866 14.3025 4.02728C11.7306 6.60591 10.2857 10.1033 10.2857 13.75C10.2857 17.3967 11.7306 20.8941 14.3025 23.4727C16.8745 26.0513 20.3627 27.5 24 27.5ZM13.7143 33.4297C5.78571 35.7607 0 43.1084 0 51.8096C0 53.5713 1.425 55 3.18214 55H44.8179C46.575 55 48 53.5713 48 51.8096C48 43.1084 42.2143 35.7607 34.2857 33.4297V38.8867C37.2429 39.6494 39.4286 42.3457 39.4286 45.5469V49.8438C39.4286 50.7891 38.6571 51.5625 37.7143 51.5625H36C35.0571 51.5625 34.2857 50.7891 34.2857 49.8438C34.2857 48.8984 35.0571 48.125 36 48.125V45.5469C36 43.6455 34.4679 42.1094 32.5714 42.1094C30.675 42.1094 29.1429 43.6455 29.1429 45.5469V48.125C30.0857 48.125 30.8571 48.8984 30.8571 49.8438C30.8571 50.7891 30.0857 51.5625 29.1429 51.5625H27.4286C26.4857 51.5625 25.7143 50.7891 25.7143 49.8438V45.5469C25.7143 42.3457 27.9 39.6494 30.8571 38.8867V32.7529C30.2143 32.6885 29.5607 32.6562 28.8964 32.6562H19.1036C18.4393 32.6562 17.7857 32.6885 17.1429 32.7529V39.7783C19.6179 40.5195 21.4286 42.8184 21.4286 45.5469C21.4286 48.8662 18.7393 51.5625 15.4286 51.5625C12.1179 51.5625 9.42857 48.8662 9.42857 45.5469C9.42857 42.8184 11.2393 40.5195 13.7143 39.7783V33.4297ZM15.4286 48.125C16.1106 48.125 16.7646 47.8534 17.2468 47.3699C17.7291 46.8864 18 46.2306 18 45.5469C18 44.8631 17.7291 44.2074 17.2468 43.7239C16.7646 43.2404 16.1106 42.9688 15.4286 42.9688C14.7466 42.9688 14.0925 43.2404 13.6103 43.7239C13.1281 44.2074 12.8571 44.8631 12.8571 45.5469C12.8571 46.2306 13.1281 46.8864 13.6103 47.3699C14.0925 47.8534 14.7466 48.125 15.4286 48.125Z" fill="#101018"/>
</g>
<defs>
<clipPath id="clip0_125_88">
<rect width="48" height="55" fill="white"/>
</clipPath>
</defs>
</svg>
