<svg width="51" height="58" viewBox="0 0 51 58" fill="none" xmlns="http://www.w3.org/2000/svg">
<g clip-path="url(#clip0_123_73)">
<path d="M10.9286 14.5C10.9286 18.3456 12.4638 22.0338 15.1964 24.753C17.9291 27.4723 21.6354 29 25.5 29C29.3646 29 33.0709 27.4723 35.8036 24.753C38.5362 22.0338 40.0714 18.3456 40.0714 14.5C40.0714 10.6544 38.5362 6.96623 35.8036 4.24695C33.0709 1.52767 29.3646 0 25.5 0C21.6354 0 17.9291 1.52767 15.1964 4.24695C12.4638 6.96623 10.9286 10.6544 10.9286 14.5ZM21.6864 37.1789L23.8038 40.6906L20.0129 54.7262L15.9147 38.0852C15.6871 37.1676 14.7991 36.5672 13.877 36.8051C5.90826 38.7875 0 45.9695 0 54.5223C0 56.448 1.57098 58 3.49487 58H18.4875C18.4875 58 18.4875 58 18.4989 58H19.125H31.875H32.5011C32.5011 58 32.5011 58 32.5125 58H47.5051C49.4404 58 51 56.4367 51 54.5223C51 45.9695 45.0917 38.7875 37.123 36.8051C36.2009 36.5785 35.3129 37.1789 35.0853 38.0852L30.9871 54.7262L27.1962 40.6906L29.3136 37.1789C30.0422 35.9668 29.1656 34.4375 27.754 34.4375H25.5H23.2574C21.8458 34.4375 20.9692 35.9781 21.6978 37.1789H21.6864Z" fill="#101018"/>
</g>
<defs>
<clipPath id="clip0_123_73">
<rect width="51" height="58" fill="white"/>
</clipPath>
</defs>
</svg>
