<svg width="50" height="57" viewBox="0 0 50 57" fill="none" xmlns="http://www.w3.org/2000/svg">
<g clip-path="url(#clip0_125_90)">
<path d="M41.3728 10.6986C38.6272 4.39746 32.3326 0 25 0C17.6674 0 11.3728 4.39746 8.62723 10.6986C6.79688 10.8545 5.35714 12.3797 5.35714 14.25V21.375C5.35714 23.2453 6.79688 24.7705 8.62723 24.9264C11.3728 31.2275 17.6674 35.625 25 35.625C32.3326 35.625 38.6272 31.2275 41.3728 24.9264C43.2031 24.7705 44.6429 23.2453 44.6429 21.375V14.25C44.6429 12.3797 43.2031 10.8545 41.3728 10.6986ZM37.5 16.0312V17.8125C37.5 23.7129 32.7009 28.5 26.7857 28.5H23.2143C17.2991 28.5 12.5 23.7129 12.5 17.8125V16.0312C12.5 13.0811 14.8996 10.6875 17.8571 10.6875H32.1429C35.1004 10.6875 37.5 13.0811 37.5 16.0312ZM21.1272 18.1131L20.4576 15.7529C20.3571 15.3855 20.0223 15.1406 19.6429 15.1406C19.2634 15.1406 18.9286 15.3855 18.8281 15.7529L18.1585 18.1131L15.7924 18.7811C15.4241 18.8813 15.1786 19.2152 15.1786 19.5938C15.1786 19.9723 15.4241 20.3062 15.7924 20.4064L18.1585 21.0744L18.8281 23.4346C18.9286 23.802 19.2634 24.0469 19.6429 24.0469C20.0223 24.0469 20.3571 23.802 20.4576 23.4346L21.1272 21.0744L23.4933 20.4064C23.8616 20.3062 24.1071 19.9723 24.1071 19.5938C24.1071 19.2152 23.8616 18.8813 23.4933 18.7811L21.1272 18.1131ZM12.5781 35.2354C5.21205 38.141 0 45.3105 0 53.6936C0 55.5193 1.48438 57 3.31473 57H14.2857V49.875C14.2857 47.9045 15.8817 46.3125 17.8571 46.3125H32.1429C34.1183 46.3125 35.7143 47.9045 35.7143 49.875V57H46.6853C48.5156 57 50 55.5193 50 53.6936C50 45.3105 44.7879 38.141 37.4219 35.2354C33.9174 37.718 29.6317 39.1875 25 39.1875C20.3683 39.1875 16.0826 37.718 12.5781 35.2354ZM19.6429 49.875C18.6607 49.875 17.8571 50.6766 17.8571 51.6562V57H21.4286V51.6562C21.4286 50.6766 20.625 49.875 19.6429 49.875ZM30.3571 53.4375C30.8307 53.4375 31.2849 53.2498 31.6198 52.9158C31.9547 52.5817 32.1429 52.1287 32.1429 51.6562C32.1429 51.1838 31.9547 50.7308 31.6198 50.3967C31.2849 50.0627 30.8307 49.875 30.3571 49.875C29.8835 49.875 29.4293 50.0627 29.0944 50.3967C28.7596 50.7308 28.5714 51.1838 28.5714 51.6562C28.5714 52.1287 28.7596 52.5817 29.0944 52.9158C29.4293 53.2498 29.8835 53.4375 30.3571 53.4375Z" fill="#101018"/>
</g>
<defs>
<clipPath id="clip0_125_90">
<rect width="50" height="57" fill="white"/>
</clipPath>
</defs>
</svg>
