<svg width="180" height="180" viewBox="0 0 180 180" fill="none" xmlns="http://www.w3.org/2000/svg">
<g clip-path="url(#clip0_105_134)">
<path d="M140.273 135.07C132.504 121.57 117.914 112.5 101.25 112.5H78.75C62.0859 112.5 47.4961 121.57 39.7266 135.07C52.1016 148.852 70.0312 157.5 90 157.5C109.969 157.5 127.898 148.816 140.273 135.07ZM0 90C0 66.1305 9.48212 43.2387 26.3604 26.3604C43.2387 9.48212 66.1305 0 90 0C113.869 0 136.761 9.48212 153.64 26.3604C170.518 43.2387 180 66.1305 180 90C180 113.869 170.518 136.761 153.64 153.64C136.761 170.518 113.869 180 90 180C66.1305 180 43.2387 170.518 26.3604 153.64C9.48212 136.761 0 113.869 0 90ZM90 95.625C96.7133 95.625 103.152 92.9582 107.899 88.2111C112.646 83.4641 115.312 77.0258 115.312 70.3125C115.312 63.5992 112.646 57.1609 107.899 52.4139C103.152 47.6668 96.7133 45 90 45C83.2867 45 76.8484 47.6668 72.1014 52.4139C67.3543 57.1609 64.6875 63.5992 64.6875 70.3125C64.6875 77.0258 67.3543 83.4641 72.1014 88.2111C76.8484 92.9582 83.2867 95.625 90 95.625Z" fill="#FFCB69"/>
</g>
<defs>
<clipPath id="clip0_105_134">
<rect width="180" height="180" fill="white"/>
</clipPath>
</defs>
</svg>
