<svg width="55" height="55" viewBox="0 0 55 55" fill="none" xmlns="http://www.w3.org/2000/svg">
<path d="M14.5234 12.6113L11.7197 20.625H43.2803L40.4766 12.6113C39.9932 11.2363 38.6934 10.3125 37.2324 10.3125H17.7676C16.3066 10.3125 15.0068 11.2363 14.5234 12.6113ZM4.25391 21.1406L8.03516 10.3447C9.48535 6.20898 13.3848 3.4375 17.7676 3.4375H37.2324C41.6152 3.4375 45.5146 6.20898 46.9648 10.3447L50.7461 21.1406C53.2383 22.1719 55 24.6318 55 27.5V42.9688V48.125C55 50.0264 53.4639 51.5625 51.5625 51.5625H48.125C46.2236 51.5625 44.6875 50.0264 44.6875 48.125V42.9688H10.3125V48.125C10.3125 50.0264 8.77637 51.5625 6.875 51.5625H3.4375C1.53613 51.5625 0 50.0264 0 48.125V42.9688V27.5C0 24.6318 1.76172 22.1719 4.25391 21.1406ZM13.75 30.9375C13.75 30.0258 13.3878 29.1515 12.7432 28.5068C12.0985 27.8622 11.2242 27.5 10.3125 27.5C9.40082 27.5 8.52648 27.8622 7.88182 28.5068C7.23716 29.1515 6.875 30.0258 6.875 30.9375C6.875 31.8492 7.23716 32.7235 7.88182 33.3682C8.52648 34.0128 9.40082 34.375 10.3125 34.375C11.2242 34.375 12.0985 34.0128 12.7432 33.3682C13.3878 32.7235 13.75 31.8492 13.75 30.9375ZM44.6875 34.375C45.5992 34.375 46.4735 34.0128 47.1182 33.3682C47.7628 32.7235 48.125 31.8492 48.125 30.9375C48.125 30.0258 47.7628 29.1515 47.1182 28.5068C46.4735 27.8622 45.5992 27.5 44.6875 27.5C43.7758 27.5 42.9015 27.8622 42.2568 28.5068C41.6122 29.1515 41.25 30.0258 41.25 30.9375C41.25 31.8492 41.6122 32.7235 42.2568 33.3682C42.9015 34.0128 43.7758 34.375 44.6875 34.375Z" fill="#9E9EBB"/>
</svg>
