<svg width="27" height="19" viewBox="0 0 27 19" fill="none" xmlns="http://www.w3.org/2000/svg">
<path d="M26.5781 11.1875H24.8906V10.3438H23.2031V9.71094L21.2342 8.23438H19.8281V3.59375C19.8281 2.89597 19.2603 2.32812 18.5625 2.32812H18.1406V1.90625C18.1406 1.20847 17.5728 0.640625 16.875 0.640625H5.0625C4.51322 0.640625 4.04916 0.994578 3.8745 1.48438H0.421875V4.01562H3.79688V5.78075C3.30708 5.95541 2.95312 6.41947 2.95312 6.96875V9.92188H0.421875V16.6719H2.95312V17.0938C2.95312 17.7915 3.52097 18.3594 4.21875 18.3594H16.875C17.4243 18.3594 17.8883 18.0054 18.063 17.5156H18.5625C19.1118 17.5156 19.5758 17.1617 19.7505 16.6719H21.2347L23.2031 15.1953V14.5625H24.8906V13.7188H26.5781V11.1875ZM17.2969 1.90625V2.32812H15.6094V5.70312H6.32812V1.48438H16.875C17.1075 1.48438 17.2969 1.67338 17.2969 1.90625ZM5.0625 1.48438H5.48438V5.70312H4.64062V1.90625C4.64062 1.67338 4.83005 1.48438 5.0625 1.48438ZM1.26562 3.17188V2.32812H3.79688V3.17188H1.26562ZM2.95312 10.7656V11.8439C2.7038 11.6988 2.41819 11.6094 2.10938 11.6094C1.80056 11.6094 1.51495 11.6988 1.26562 11.8439V10.7656H2.95312ZM2.95312 13.2969C2.95312 13.7622 2.5747 14.1406 2.10938 14.1406C1.64405 14.1406 1.26562 13.7622 1.26562 13.2969C1.26562 12.8315 1.64405 12.4531 2.10938 12.4531C2.5747 12.4531 2.95312 12.8315 2.95312 13.2969ZM1.26562 15.8281V14.7498C1.51495 14.8949 1.80056 14.9844 2.10938 14.9844C2.41819 14.9844 2.7038 14.8949 2.95312 14.7498V15.8281H1.26562ZM17.2969 17.0938C17.2969 17.3266 17.1075 17.5156 16.875 17.5156H6.32812V7.8125H5.48438V17.5156H4.21875C3.9863 17.5156 3.79688 17.3266 3.79688 17.0938V6.96875C3.79688 6.73588 3.9863 6.54688 4.21875 6.54688H14.7656V16.6719H15.6094V6.54688H16.875C17.1075 6.54688 17.2969 6.73588 17.2969 6.96875V17.0938ZM18.9844 16.25C18.9844 16.4829 18.795 16.6719 18.5625 16.6719H18.1406V6.96875C18.1406 6.27097 17.5728 5.70312 16.875 5.70312H16.4531V3.17188H18.5625C18.795 3.17188 18.9844 3.36087 18.9844 3.59375V16.25ZM22.3594 14.7734L20.9533 15.8281H19.8281V9.07812H20.9533L22.3594 10.1328V14.7734ZM24.0469 13.7188H23.2031V11.1875H24.0469V13.7188ZM25.7344 12.875H24.8906V12.0312H25.7344V12.875Z" fill="#FFCB69"/>
</svg>
