<svg width="60" height="60" viewBox="0 0 60 60" fill="none" xmlns="http://www.w3.org/2000/svg">
<path d="M44.2852 12.4102L58.6758 26.8008C59.5195 27.6445 60 28.8047 60 30C60 31.1953 59.5195 32.3555 58.6758 33.1992L44.2852 47.5898C43.5352 48.3398 42.5273 48.75 41.4727 48.75C39.2812 48.75 37.5 46.9688 37.5 44.7773V37.5H22.5C20.4258 37.5 18.75 35.8242 18.75 33.75V26.25C18.75 24.1758 20.4258 22.5 22.5 22.5H37.5V15.2227C37.5 13.0312 39.2812 11.25 41.4727 11.25C42.5273 11.25 43.5352 11.6719 44.2852 12.4102ZM18.75 11.25H11.25C9.17578 11.25 7.5 12.9258 7.5 15V45C7.5 47.0742 9.17578 48.75 11.25 48.75H18.75C20.8242 48.75 22.5 50.4258 22.5 52.5C22.5 54.5742 20.8242 56.25 18.75 56.25H11.25C5.03906 56.25 0 51.2109 0 45V15C0 8.78906 5.03906 3.75 11.25 3.75H18.75C20.8242 3.75 22.5 5.42578 22.5 7.5C22.5 9.57422 20.8242 11.25 18.75 11.25Z" fill="#8D643B"/>
</svg>
