<svg width="22" height="22" viewBox="0 0 22 22" fill="none" xmlns="http://www.w3.org/2000/svg">
<path d="M21.9718 5.30531C21.9675 5.30681 21.9759 5.30376 21.9718 5.30531L21.1158 2.416C20.6958 1.36593 19.6934 0.6875 18.5625 0.6875H13.1051C11.9742 0.6875 10.9721 1.36593 10.5337 2.4677L9.80603 4.8125H6.875V2.83594C6.875 2.82073 6.86727 2.80796 6.86632 2.79297C6.86727 2.77797 6.875 2.76521 6.875 2.75C6.875 2.37033 6.56717 2.0625 6.1875 2.0625H2.75C2.37033 2.0625 2.0625 2.37033 2.0625 2.75V4.8125H0.6875C0.307828 4.8125 0 5.12033 0 5.5V20.625C0 21.0047 0.307828 21.3125 0.6875 21.3125H21.3125C21.6922 21.3125 22 21.0047 22 20.625V5.5C22 5.4328 21.9898 5.36667 21.9718 5.30531ZM11.8285 2.9269C12.0386 2.40187 12.5398 2.0625 13.1051 2.0625H18.5625C19.1281 2.0625 19.6293 2.40187 19.8183 2.86614L20.3928 4.8125H11.2449L11.8285 2.9269ZM3.4375 3.4375H5.5V4.8125H3.4375V3.4375ZM20.625 19.9375H1.375V6.1875H10.3107C10.3114 6.1875 10.3121 6.18784 10.3128 6.18784C10.3136 6.18784 10.3142 6.1875 10.3149 6.1875H20.625V19.9375Z" fill="#FFCB69"/>
<path d="M14.1529 9.62502H7.84719L5.98608 7.76392C5.71753 7.49536 5.28247 7.49536 5.01392 7.76392C4.74536 8.03247 4.74536 8.46753 5.01392 8.73608L6.87502 10.5972V15.5279L5.01392 17.389C4.74536 17.6575 4.74536 18.0926 5.01392 18.3611C5.14824 18.4954 5.32411 18.5625 5.50002 18.5625C5.67594 18.5625 5.85185 18.4954 5.98613 18.3611L7.84719 16.5H14.1529L16.014 18.3611C16.1482 18.4954 16.3241 18.5625 16.5 18.5625C16.6759 18.5625 16.8518 18.4954 16.9861 18.3611C17.2547 18.0925 17.2547 17.6575 16.9861 17.3889L15.125 15.5279V10.5972L16.9861 8.73608C17.2547 8.46753 17.2547 8.03247 16.9861 7.76392C16.7176 7.49536 16.2825 7.49536 16.014 7.76392L14.1529 9.62502ZM8.25002 11H13.75V15.125H8.25002V11Z" fill="#FFCB69"/>
</svg>
