<svg width="55" height="47" viewBox="0 0 55 47" fill="none" xmlns="http://www.w3.org/2000/svg">
<path d="M24.2559 45.6949L23.9873 45.4479L5.16699 27.9703C1.86914 24.9088 0 20.6119 0 16.111V15.7565C0 8.19396 5.37109 1.70568 12.8047 0.287712C17.0371 -0.528695 21.3662 0.448844 24.8145 2.87658C25.7812 3.56408 26.6836 4.359 27.5 5.27209C27.9512 4.75646 28.4346 4.28381 28.9502 3.84338C29.3477 3.49963 29.7559 3.17736 30.1855 2.87658C33.6338 0.448844 37.9629 -0.528695 42.1953 0.27697C49.6289 1.69494 55 8.19396 55 15.7565V16.111C55 20.6119 53.1309 24.9088 49.833 27.9703L31.0127 45.4479L30.7441 45.6949C29.8633 46.5113 28.7031 46.9733 27.5 46.9733C26.2969 46.9733 25.1367 46.5221 24.2559 45.6949ZM25.6846 10.9762C25.6416 10.944 25.6094 10.901 25.5771 10.858L23.665 8.70959L23.6543 8.69885C21.1729 5.91662 17.4238 4.64904 13.7715 5.34728C8.76562 6.30334 5.15625 10.6647 5.15625 15.7565V16.111C5.15625 19.1725 6.43457 22.1051 8.67969 24.1891L27.5 41.6666L46.3203 24.1891C48.5654 22.1051 49.8438 19.1725 49.8438 16.111V15.7565C49.8438 10.6754 46.2344 6.30334 41.2393 5.34728C37.5869 4.64904 33.8271 5.92736 31.3564 8.69885C31.3564 8.69885 31.3564 8.69885 31.3457 8.70959C31.335 8.72033 31.3457 8.70959 31.335 8.72033L29.4229 10.8688C29.3906 10.9117 29.3477 10.944 29.3154 10.9869C28.832 11.4703 28.1768 11.7389 27.5 11.7389C26.8232 11.7389 26.168 11.4703 25.6846 10.9869V10.9762Z" fill="#9E9EBB"/>
</svg>
