<svg width="21" height="24" viewBox="0 0 21 24" fill="none" xmlns="http://www.w3.org/2000/svg">
<g clip-path="url(#clip0_213_11)">
<path d="M10.4164 6.60928C7.46016 6.60928 5.07568 9.01396 5.07568 11.9952C5.07568 14.9765 7.46016 17.3812 10.4164 17.3812C13.3726 17.3812 15.757 14.9765 15.757 11.9952C15.757 9.01396 13.3726 6.60928 10.4164 6.60928ZM10.4164 15.4968C8.50599 15.4968 6.94422 13.9265 6.94422 11.9952C6.94422 10.064 8.50134 8.49365 10.4164 8.49365C12.3314 8.49365 13.8885 10.064 13.8885 11.9952C13.8885 13.9265 12.3267 15.4968 10.4164 15.4968ZM17.2212 6.38896C17.2212 7.0874 16.6634 7.64522 15.9755 7.64522C15.2829 7.64522 14.7298 7.08271 14.7298 6.38896C14.7298 5.69521 15.2876 5.13271 15.9755 5.13271C16.6634 5.13271 17.2212 5.69521 17.2212 6.38896ZM20.7584 7.66397C20.6794 5.98115 20.2982 4.49053 19.0758 3.2624C17.858 2.03428 16.3799 1.6499 14.7112 1.56553C12.9914 1.46709 7.83666 1.46709 6.11686 1.56553C4.45283 1.64521 2.97474 2.02959 1.75228 3.25771C0.529831 4.48584 0.153334 5.97646 0.0696677 7.65928C-0.0279426 9.39365 -0.0279426 14.5921 0.0696677 16.3265C0.148686 18.0093 0.529831 19.4999 1.75228 20.728C2.97474 21.9562 4.44819 22.3405 6.11686 22.4249C7.83666 22.5233 12.9914 22.5233 14.7112 22.4249C16.3799 22.3452 17.858 21.9608 19.0758 20.728C20.2936 19.4999 20.6747 18.0093 20.7584 16.3265C20.856 14.5921 20.856 9.39834 20.7584 7.66397ZM18.5366 18.1874C18.1741 19.1062 17.4722 19.814 16.5565 20.1843C15.1853 20.7327 11.9316 20.6062 10.4164 20.6062C8.90107 20.6062 5.64275 20.728 4.27621 20.1843C3.36518 19.8187 2.66331 19.1108 2.29611 18.1874C1.75228 16.8046 1.87778 13.5233 1.87778 11.9952C1.87778 10.4671 1.75693 7.18115 2.29611 5.80303C2.65866 4.88428 3.36053 4.17646 4.27621 3.80615C5.6474 3.25771 8.90107 3.38428 10.4164 3.38428C11.9316 3.38428 15.19 3.2624 16.5565 3.80615C17.4675 4.17178 18.1694 4.87959 18.5366 5.80303C19.0804 7.18584 18.9549 10.4671 18.9549 11.9952C18.9549 13.5233 19.0804 16.8093 18.5366 18.1874Z" fill="white"/>
</g>
<defs>
<clipPath id="clip0_213_11">
<rect width="20.8235" height="24" fill="white"/>
</clipPath>
</defs>
</svg>
