<?xml version="1.0" encoding="UTF-8" standalone="no"?>
<svg
   version="1.1"
   id="Layer_1"
   x="0px"
   y="0px"
   viewBox="0 0 122.88 44.000001"
   xml:space="preserve"
   sodipodi:docname="logo-2.svg"
   width="122.88"
   height="44"
   inkscape:version="1.2.2 (b0a8486541, 2022-12-01)"
   xmlns:inkscape="http://www.inkscape.org/namespaces/inkscape"
   xmlns:sodipodi="http://sodipodi.sourceforge.net/DTD/sodipodi-0.dtd"
   xmlns="http://www.w3.org/2000/svg"
   xmlns:svg="http://www.w3.org/2000/svg"><defs
     id="defs54" /><sodipodi:namedview
     id="namedview52"
     pagecolor="#ffffff"
     bordercolor="#000000"
     borderopacity="0.25"
     inkscape:showpageshadow="2"
     inkscape:pageopacity="0.0"
     inkscape:pagecheckerboard="0"
     inkscape:deskcolor="#d1d1d1"
     showgrid="false"
     inkscape:zoom="4.9886069"
     inkscape:cx="53.221271"
     inkscape:cy="28.966003"
     inkscape:window-width="1366"
     inkscape:window-height="725"
     inkscape:window-x="0"
     inkscape:window-y="0"
     inkscape:window-maximized="1"
     inkscape:current-layer="Layer_1" /><style
     type="text/css"
     id="style45">.st0{fill-rule:evenodd;clip-rule:evenodd;}</style><g
     id="g49"><path
       id="path266"
       style="fill:#837888;fill-opacity:1"
       d="M 63.146484 25.363281 A 57.886303 8.0201893 0 0 0 28.089844 27.019531 A 5.0481648 5.0481648 0 0 1 23.855469 29.322266 A 5.0481648 5.0481648 0 0 1 20.4375 27.978516 A 57.886303 8.0201893 0 0 0 5.2597656 33.382812 A 57.886303 8.0201893 0 0 0 63.146484 41.404297 A 57.886303 8.0201893 0 0 0 121.0332 33.382812 A 57.886303 8.0201893 0 0 0 103.2793 27.623047 A 5.0481648 5.0481648 0 0 1 99.439453 29.396484 A 5.0481648 5.0481648 0 0 1 94.984375 26.695312 A 57.886303 8.0201893 0 0 0 63.146484 25.363281 z "
       inkscape:label="suelo" /><path
       class="st0"
       d="m 99.42,13.57 c 5.93,0 10.73,4.8 10.73,10.73 0,5.93 -4.8,10.73 -10.73,10.73 -5.93,0 -10.73,-4.8 -10.73,-10.73 0,-5.93 4.8,-10.73 10.73,-10.73 z M 79.05,5 c -0.59,1.27 -1.06,2.69 -1.42,4.23 -0.82,2.57 0.39,3.11 3.19,2.06 C 82.88,10.06 84.94,8.82 87,7.59 88.05,6.85 88.55,6.12 88.38,5.4 88.04,3.98 85.3,3.24 83.05,2.8 80.19,2.23 80.39,2.11 79.05,5 Z M 23.86,19.31 c 2.75,0 4.99,2.23 4.99,4.99 0,2.75 -2.23,4.99 -4.99,4.99 -2.75,0 -4.99,-2.23 -4.99,-4.99 0,-2.76 2.23,-4.99 4.99,-4.99 z m 75.56,0 c 2.75,0 4.99,2.23 4.99,4.99 0,2.75 -2.23,4.99 -4.99,4.99 -2.75,0 -4.99,-2.23 -4.99,-4.99 0,-2.76 2.23,-4.99 4.99,-4.99 z M 46.14,12.5 C 48.91,9.53 52.11,7.6 55.81,5.74 63.91,1.66 68.87,2.16 77.47,2.16 l -2.89,7.5 c -1.21,1.6 -2.58,2.73 -4.66,2.84 z m -22.28,1.07 c 5.93,0 10.73,4.8 10.73,10.73 0,5.93 -4.8,10.73 -10.73,10.73 -5.93,0 -10.73,-4.8 -10.73,-10.73 0,-5.93 4.8,-10.73 10.73,-10.73 z M 40.82,10.3 c 3.52,-2.19 7.35,-4.15 11.59,-5.82 12.91,-5.09 22.78,-6 36.32,-1.9 4.08,1.55 8.16,3.1 12.24,4.06 4.03,0.96 21.48,1.88 21.91,4.81 l -4.31,5.15 c 1.57,1.36 2.85,3.03 3.32,5.64 -0.13,1.61 -0.57,2.96 -1.33,4.04 -1.29,1.85 -5.07,3.76 -7.11,2.67 C 112.8,28.6 112.43,27.9 112.44,26.71 112.5,2.81 83.65,5.53 85.82,29.53 H 35.48 C 44.8,5.49 5.04,5.4 12.1,28.7 9.62,31.38 3.77,27.34 0,18.75 1.03,17.73 2.16,16.76 3.42,15.86 3.36,15.81 3.48,16.05 3.27,15.69 3.06,15.33 3.78,13.82 5.26,12.95 13.02,8.4 31.73,8.52 40.82,10.3 Z"
       id="path47"
       style="fill:#ececec;fill-opacity:1"
       inkscape:label="coche" /><text
       xml:space="preserve"
       style="font-size:16.8579px;fill:#898175;stroke-width:1.40483;fill-opacity:1"
       x="40.252865"
       y="30.847708"
       id="text461"
       transform="scale(1.1839385,0.84463847)"
       inkscape:label="cr"><tspan
         sodipodi:role="line"
         id="tspan459"
         x="40.252865"
         y="30.847708"
         style="font-style:normal;font-variant:normal;font-weight:800;font-stretch:normal;font-family:Ubuntu;-inkscape-font-specification:'Ubuntu Ultra-Bold';stroke-width:1.40483;fill:#898175;fill-opacity:1">CR</tspan></text></g></svg>
