<svg width="94" height="108" viewBox="0 0 94 108" fill="none" xmlns="http://www.w3.org/2000/svg">
<path d="M0 45.5625C0 31.5773 11.2674 20.25 25.1786 20.25H26.8571C30.571 20.25 33.5714 23.2664 33.5714 27C33.5714 30.7336 30.571 33.75 26.8571 33.75H25.1786C18.6951 33.75 13.4286 39.0445 13.4286 45.5625V47.25H26.8571C34.2638 47.25 40.2857 53.3039 40.2857 60.75V74.25C40.2857 81.6961 34.2638 87.75 26.8571 87.75H13.4286C6.02188 87.75 0 81.6961 0 74.25V67.5V60.75V45.5625ZM53.7143 45.5625C53.7143 31.5773 64.9817 20.25 78.8929 20.25H80.5714C84.2853 20.25 87.2857 23.2664 87.2857 27C87.2857 30.7336 84.2853 33.75 80.5714 33.75H78.8929C72.4094 33.75 67.1429 39.0445 67.1429 45.5625V47.25H80.5714C87.9781 47.25 94 53.3039 94 60.75V74.25C94 81.6961 87.9781 87.75 80.5714 87.75H67.1429C59.7362 87.75 53.7143 81.6961 53.7143 74.25V67.5V60.75V45.5625Z" fill="#FFCB69"/>
</svg>
