<svg width="20" height="30" viewBox="0 0 20 30" fill="none" xmlns="http://www.w3.org/2000/svg">
<path d="M12.8245 29.2371C12.8245 29.6585 12.483 30 12.0617 30H7.93791C7.51655 30 7.17504 29.6585 7.17504 29.2371C7.17504 28.8158 7.51655 28.4743 7.93791 28.4743H12.0617C12.483 28.4743 12.8245 28.8158 12.8245 29.2371ZM19.554 21.9502V24.1479C19.554 25.7804 18.2257 27.1085 16.5931 27.1085H3.40654C1.77408 27.1085 0.445923 25.7805 0.445923 24.1479V21.9502C0.445923 21.5288 0.787435 21.1873 1.20879 21.1873H1.41172C1.40994 21.1654 1.40892 21.1432 1.40892 21.1209V19.0765C1.40782 19.0312 1.41087 18.9862 1.41782 18.9419C1.43511 18.8293 1.47707 18.7248 1.53802 18.6341C1.59777 18.5447 1.67694 18.4672 1.77256 18.4088C1.81129 18.3849 1.85223 18.3645 1.89512 18.3478C2.19722 18.2221 2.49754 18.0922 2.79404 17.9591V8.63816C2.79404 7.12284 3.75823 5.79172 5.13343 5.27958C5.13182 5.23787 5.13105 5.19617 5.13105 5.15413V3.27001C5.13097 1.46692 6.59789 0 8.40089 0H11.5986C13.4017 0 14.8685 1.46692 14.8685 3.27001V5.15421C14.8685 5.19617 14.8677 5.23796 14.8661 5.27949C15.4082 5.48106 15.8942 5.81181 16.2819 6.24164C16.2954 6.21621 16.3088 6.19087 16.3224 6.16544C16.5189 5.79282 16.9802 5.64999 17.3531 5.84673C17.7257 6.0433 17.8684 6.50483 17.6718 6.87745C16.244 9.58361 14.1705 12.0911 11.5089 14.3301C9.38449 16.1172 6.97305 17.6608 4.31987 18.9339V21.1874H15.6799V12.0059C15.6799 11.5845 16.0214 11.243 16.4427 11.243C16.8641 11.243 17.2056 11.5845 17.2056 12.0059V21.1873H18.7912C19.2124 21.1873 19.554 21.5288 19.554 21.9502ZM6.65671 5.15421C6.65671 5.31035 6.67731 5.46182 6.71596 5.606C6.72215 5.62465 6.72766 5.64364 6.73232 5.66296C6.9505 6.37735 7.6159 6.89848 8.40081 6.89848H11.5985C12.3833 6.89848 13.0487 6.37752 13.2671 5.66322C13.2719 5.64364 13.2774 5.6244 13.2836 5.60558C13.3222 5.46157 13.3428 5.31026 13.3428 5.15421V3.27001C13.3428 2.30819 12.5603 1.52574 11.5985 1.52574H8.40081C7.43908 1.52574 6.65671 2.30819 6.65671 3.27001V5.15421ZM4.31978 17.23C9.08213 14.8125 12.9941 11.4534 15.4375 7.67389C15.2161 7.26101 14.8654 6.94001 14.4487 6.7559C13.8874 7.75086 12.8201 8.42413 11.5985 8.42413H8.40081C7.17928 8.42413 6.11202 7.75077 5.55072 6.75582C4.82141 7.07792 4.31978 7.81011 4.31978 8.63816V17.23ZM18.0282 22.7131H16.4542C16.4503 22.7131 16.4465 22.7131 16.4427 22.7131H3.55691C3.5531 22.7131 3.54928 22.7131 3.54538 22.7131H1.97167V24.1479C1.97167 24.9391 2.61536 25.5828 3.40654 25.5828H16.5931C17.3845 25.5828 18.0282 24.9391 18.0282 24.1479V22.7131Z" fill="#FFCB69"/>
</svg>
