<svg width="55" height="55" viewBox="0 0 55 55" fill="none" xmlns="http://www.w3.org/2000/svg">
<path d="M27.5 0C27.9942 0 28.4883 0.107422 28.9395 0.311523L49.167 8.89453C51.5303 9.89355 53.292 12.2246 53.2813 15.0391C53.2276 25.6953 48.8448 45.1924 30.336 54.0547C28.542 54.9141 26.4581 54.9141 24.6641 54.0547C6.15532 45.1924 1.77251 25.6953 1.7188 15.0391C1.70806 12.2246 3.46977 9.89355 5.83306 8.89453L26.0713 0.311523C26.5118 0.107422 27.0059 0 27.5 0ZM27.5 7.17578V47.792C42.3243 40.6055 46.3096 24.7178 46.4063 15.1895L27.5 7.17578Z" fill="#9E9EBB"/>
</svg>
