<svg width="15" height="20" viewBox="0 0 15 20" fill="none" xmlns="http://www.w3.org/2000/svg">

<g clip-path="url(#clip0_212_334)">
<path fill="#805D26" d="M6.44067 1.61719C7.02661 1.12891 7.97817 1.12891 8.56411 1.61719L14.5641 6.61719C14.9954 6.97656 15.1219 7.51172 14.8875 7.98047C14.6532 8.44922 14.1094 8.75391 13.5 8.75391L1.50005 8.75C0.895358 8.75 0.346921 8.44531 0.112546 7.97656C-0.121829 7.50781 0.00942104 6.97266 0.435984 6.61328L6.43598 1.61328L6.44067 1.61719ZM6.44067 18.3867L0.440671 13.3867C0.00942104 13.0273 -0.117141 12.4922 0.117234 12.0234C0.351609 11.5547 0.895358 11.25 1.50473 11.25H13.5047C14.1094 11.25 14.6579 11.5547 14.8922 12.0234C15.1266 12.4922 14.9954 13.0273 14.5688 13.3867L8.5688 18.3867C7.98286 18.875 7.0313 18.875 6.44536 18.3867H6.44067Z"/>
</g>
<defs>
<clipPath id="clip0_212_334">
<rect width="15" height="20" fill="white"/>
</clipPath>
</defs>
</svg>
