<svg width="26" height="20" viewBox="0 0 26 20" fill="none" xmlns="http://www.w3.org/2000/svg">
<path d="M13 3.5C13.2155 3.5 13.4222 3.5856 13.5745 3.73798C13.7269 3.89035 13.8125 4.09701 13.8125 4.3125V6.75C13.8125 6.96549 13.7269 7.17215 13.5745 7.32452C13.4222 7.4769 13.2155 7.5625 13 7.5625C12.7845 7.5625 12.5778 7.4769 12.4255 7.32452C12.2731 7.17215 12.1875 6.96549 12.1875 6.75V4.3125C12.1875 4.09701 12.2731 3.89035 12.4255 3.73798C12.5778 3.5856 12.7845 3.5 13 3.5ZM6.0645 6.3145C6.21687 6.16218 6.42349 6.07661 6.63894 6.07661C6.85438 6.07661 7.06101 6.16218 7.21338 6.3145L8.70025 7.79975C8.77579 7.87529 8.83572 7.96497 8.8766 8.06368C8.91748 8.16238 8.93853 8.26817 8.93853 8.375C8.93853 8.48183 8.91748 8.58762 8.8766 8.68632C8.83572 8.78503 8.77579 8.87471 8.70025 8.95025C8.62471 9.02579 8.53503 9.08572 8.43632 9.1266C8.33762 9.16748 8.23183 9.18853 8.125 9.18853C8.01817 9.18853 7.91238 9.16748 7.81368 9.1266C7.71497 9.08572 7.62529 9.02579 7.54975 8.95025L6.0645 7.46338C5.91218 7.31101 5.82661 7.10438 5.82661 6.88894C5.82661 6.67349 5.91218 6.46687 6.0645 6.3145ZM3.25 13.25C3.25 13.0345 3.3356 12.8278 3.48798 12.6755C3.64035 12.5231 3.84701 12.4375 4.0625 12.4375H6.63975C6.85524 12.4375 7.0619 12.5231 7.21427 12.6755C7.36665 12.8278 7.45225 13.0345 7.45225 13.25C7.45225 13.4655 7.36665 13.6722 7.21427 13.8245C7.0619 13.9769 6.85524 14.0625 6.63975 14.0625H4.0625C3.84701 14.0625 3.64035 13.9769 3.48798 13.8245C3.3356 13.6722 3.25 13.4655 3.25 13.25ZM18.6875 13.25C18.6875 13.0345 18.7731 12.8278 18.9255 12.6755C19.0778 12.5231 19.2845 12.4375 19.5 12.4375H21.9375C22.153 12.4375 22.3597 12.5231 22.512 12.6755C22.6644 12.8278 22.75 13.0345 22.75 13.25C22.75 13.4655 22.6644 13.6722 22.512 13.8245C22.3597 13.9769 22.153 14.0625 21.9375 14.0625H19.5C19.2845 14.0625 19.0778 13.9769 18.9255 13.8245C18.7731 13.6722 18.6875 13.4655 18.6875 13.25ZM19.9128 6.35025C19.8002 6.23826 19.6496 6.17275 19.4909 6.16672C19.3322 6.1607 19.1771 6.21462 19.0564 6.31775L12.2639 12.1288C12.1056 12.2621 11.9771 12.4272 11.8867 12.6133C11.7962 12.7994 11.7458 13.0025 11.7388 13.2093C11.7318 13.4161 11.7682 13.6221 11.8458 13.814C11.9234 14.0058 12.0403 14.1793 12.1892 14.3231C12.338 14.4669 12.5154 14.5778 12.7098 14.6488C12.9042 14.7197 13.1113 14.749 13.3178 14.7349C13.5242 14.7208 13.7254 14.6634 13.9083 14.5666C14.0912 14.4699 14.2518 14.3357 14.3796 14.173L19.9599 7.19037C20.057 7.06885 20.1058 6.9158 20.0971 6.7605C20.0884 6.6052 20.0228 6.45855 19.9128 6.34862V6.35025Z" fill="#FFCB69"/>
<path fill-rule="evenodd" clip-rule="evenodd" d="M8.62523e-06 13.25C0.00170735 11.3582 0.41629 9.48956 1.21481 7.77453C2.01334 6.05949 3.17656 4.5394 4.62327 3.32037C6.06999 2.10135 7.76533 1.21277 9.59095 0.716667C11.4166 0.220564 13.3285 0.128893 15.1932 0.448054C17.0579 0.767214 18.8305 1.48951 20.3872 2.56453C21.9439 3.63955 23.2472 5.04137 24.2061 6.67215C25.1651 8.30292 25.7566 10.1233 25.9392 12.0063C26.1219 13.8893 25.8915 15.7895 25.2639 17.5742C24.5456 19.6103 22.2658 20.1774 20.4994 19.6054C18.3771 18.918 15.3969 18.125 13 18.125C10.6048 18.125 7.62126 18.918 5.50063 19.6054C3.73426 20.1774 1.45438 19.6103 0.736134 17.5742C0.247239 16.185 -0.00168906 14.7227 8.62523e-06 13.25ZM13 1.87505C11.1806 1.87458 9.38765 2.31054 7.77159 3.14634C6.15553 3.98214 4.76354 5.19339 3.71243 6.67844C2.66132 8.16349 1.98177 9.87901 1.73081 11.681C1.47985 13.483 1.66479 15.3189 2.27013 17.0347C2.60001 17.969 3.77001 18.4582 5.00013 18.0584C7.14513 17.3662 10.3318 16.5 13 16.5C15.6683 16.5 18.8565 17.3645 20.9999 18.06C22.23 18.4582 23.4 17.969 23.7299 17.0347C24.3352 15.3189 24.5202 13.483 24.2692 11.681C24.0182 9.87901 23.3387 8.16349 22.2876 6.67844C21.2365 5.19339 19.8445 3.98214 18.2284 3.14634C16.6124 2.31054 14.8194 1.87458 13 1.87505Z" fill="#FFCB69"/>
</svg>
