<svg width="28" height="25" viewBox="0 0 28 25" fill="none" xmlns="http://www.w3.org/2000/svg">
<g clip-path="url(#clip0_123_52)">
<path d="M15.086 0.878906C14.837 0.341797 14.3109 0 13.7331 0C13.1553 0 12.6339 0.341797 12.3803 0.878906L9.35986 7.33887L2.61444 8.37402C2.05076 8.46192 1.58102 8.87207 1.40722 9.43359C1.23342 9.99512 1.37434 10.6152 1.77831 11.0303L6.67297 16.0645L5.51742 23.1787C5.42347 23.7647 5.65834 24.3604 6.12338 24.707C6.58842 25.0537 7.20377 25.0977 7.71109 24.8193L13.7378 21.4746L19.7645 24.8193C20.2718 25.0977 20.8872 25.0586 21.3522 24.707C21.8173 24.3555 22.0522 23.7647 21.9582 23.1787L20.798 16.0645L25.6926 11.0303C26.0966 10.6152 26.2422 9.99512 26.0637 9.43359C25.8852 8.87207 25.4202 8.46192 24.8565 8.37402L18.1064 7.33887L15.086 0.878906Z" fill="#FFCB69"/>
</g>
<defs>
<clipPath id="clip0_123_52">
<rect width="27.0568" height="25" fill="white" transform="translate(0.199951)"/>
</clipPath>
</defs>
</svg>
