<svg width="27" height="25" viewBox="0 0 27 25" fill="none" xmlns="http://www.w3.org/2000/svg">
<g clip-path="url(#clip0_123_42)">
<path d="M13.5004 0C13.9711 0 14.4008 0.253887 14.6055 0.65913L18.115 7.55802L25.9525 8.66146C26.413 8.72493 26.7967 9.03252 26.9399 9.45729C27.0832 9.88207 26.9655 10.341 26.6381 10.6535L20.9543 16.0339L22.2947 23.631C22.3714 24.0704 22.1821 24.5148 21.7984 24.7784C21.4147 25.0421 20.9134 25.0714 20.5041 24.8614L13.4953 21.2875L6.49678 24.8565C6.08239 25.0665 5.58103 25.0372 5.20245 24.7735C4.82388 24.5099 4.62947 24.0656 4.70621 23.6261L6.04658 16.0291L0.362811 10.6535C0.0302778 10.341 -0.082272 9.87718 0.0609732 9.45729C0.204218 9.0374 0.587911 8.72981 1.04834 8.66146L8.8859 7.55802L12.3954 0.65913C12.6052 0.253887 13.0298 0 13.5004 0ZM13.5004 3.85713L10.8146 9.13994C10.6355 9.48659 10.2928 9.73071 9.88862 9.7893L3.83651 10.6388L8.23107 14.7938C8.51244 15.0623 8.64545 15.4432 8.57895 15.8191L7.54042 21.6634L12.9223 18.9195C13.2856 18.7339 13.7204 18.7339 14.0785 18.9195L19.4605 21.6634L18.4271 15.824C18.3605 15.4481 18.4884 15.0672 18.7749 14.7987L23.1695 10.6437L17.1174 9.7893C16.7183 9.73071 16.3705 9.49147 16.1914 9.13994L13.5004 3.85713Z" fill="#FFCB69"/>
</g>
<defs>
<clipPath id="clip0_123_42">
<rect width="27" height="25" fill="white"/>
</clipPath>
</defs>
</svg>
