<svg width="21" height="24" viewBox="0 0 21 24" fill="none" xmlns="http://www.w3.org/2000/svg">
<g clip-path="url(#clip0_213_15)">
<path d="M20.8889 9.83906C18.8354 9.84348 16.8325 9.19907 15.1631 7.99688V16.3781C15.1626 17.9304 14.6907 19.4455 13.8105 20.7208C12.9303 21.9961 11.6837 22.9708 10.2375 23.5146C8.79136 24.0584 7.21449 24.1453 5.71784 23.7638C4.22118 23.3822 2.87609 22.5503 1.86246 21.3794C0.848836 20.2084 0.214994 18.7543 0.0457106 17.2114C-0.123573 15.6685 0.179772 14.1104 0.915176 12.7456C1.65058 11.3807 2.78298 10.2741 4.16093 9.57374C5.53888 8.8734 7.09668 8.61272 8.626 8.82656V13.0406C7.92672 12.8193 7.17576 12.8258 6.48036 13.0591C5.78496 13.2925 5.18066 13.7407 4.75376 14.3399C4.32686 14.939 4.09918 15.6585 4.10323 16.3955C4.10729 17.1325 4.34286 17.8493 4.77633 18.4437C5.20979 19.0381 5.81898 19.4796 6.5169 19.7052C7.21483 19.9308 7.96581 19.9289 8.66261 19.6998C9.35942 19.4708 9.96642 19.0262 10.3969 18.4297C10.8275 17.8332 11.0595 17.1151 11.0599 16.3781V0H15.1631C15.1608 0.348874 15.1904 0.69722 15.2517 1.04063C15.3944 1.80609 15.6909 2.53427 16.123 3.18065C16.5551 3.82703 17.1138 4.37804 17.7649 4.8C18.6917 5.41539 19.7782 5.74306 20.8889 5.74219V9.83906Z" fill="white"/>
</g>
<defs>
<clipPath id="clip0_213_15">
<rect width="20.8889" height="24" fill="white"/>
</clipPath>
</defs>
</svg>
