<svg width="65" height="55" viewBox="0 0 65 55" fill="none" xmlns="http://www.w3.org/2000/svg">
<path d="M22.7536 27.5C26.2019 27.5 29.509 26.0513 31.9474 23.4727C34.3857 20.8941 35.7556 17.3967 35.7556 13.75C35.7556 10.1033 34.3857 6.60591 31.9474 4.02728C29.509 1.44866 26.2019 0 22.7536 0C19.3052 0 15.9981 1.44866 13.5597 4.02728C11.1214 6.60591 9.75152 10.1033 9.75152 13.75C9.75152 17.3967 11.1214 20.8941 13.5597 23.4727C15.9981 26.0513 19.3052 27.5 22.7536 27.5ZM18.1114 32.6562C8.10595 32.6562 0 41.2285 0 51.8096C0 53.5713 1.35099 55 3.01688 55H32.7895C32.4746 54.0547 32.4137 53.0234 32.6473 52.0137L34.171 45.5576C34.4554 44.3438 35.0445 43.248 35.8775 42.3672L39.9711 38.0381C36.7104 34.708 32.2816 32.6562 27.3855 32.6562H18.1013H18.1114ZM62.3488 25.3193C60.7642 23.6436 58.1942 23.6436 56.5995 25.3193L53.6131 28.4775L60.8251 36.1045L63.8115 32.9463C65.3962 31.2705 65.3962 28.5527 63.8115 26.8662L62.3488 25.3193ZM38.1833 44.7949C37.7668 45.2354 37.4723 45.7832 37.3301 46.3955L35.8064 52.8516C35.6642 53.4424 35.8267 54.0547 36.233 54.4844C36.6393 54.9141 37.2183 55.0859 37.777 54.9355L43.8819 53.3242C44.4507 53.1738 44.9789 52.8623 45.3954 52.4219L58.5193 38.5322L51.3072 30.9053L38.1833 44.7949Z" fill="#9E9EBB"/>
</svg>
