<svg width="55" height="55" viewBox="0 0 55 55" fill="none" xmlns="http://www.w3.org/2000/svg">
<path d="M6.875 3.4375C3.08301 3.4375 0 6.52051 0 10.3125V44.6875C0 48.4795 3.08301 51.5625 6.875 51.5625H48.125C51.917 51.5625 55 48.4795 55 44.6875V20.625C55 16.833 51.917 13.75 48.125 13.75H8.59375C7.64844 13.75 6.875 12.9766 6.875 12.0312C6.875 11.0859 7.64844 10.3125 8.59375 10.3125H48.125C50.0264 10.3125 51.5625 8.77637 51.5625 6.875C51.5625 4.97363 50.0264 3.4375 48.125 3.4375H6.875ZM44.6875 29.2188C45.5992 29.2188 46.4735 29.5809 47.1182 30.2256C47.7628 30.8702 48.125 31.7446 48.125 32.6562C48.125 33.5679 47.7628 34.4423 47.1182 35.0869C46.4735 35.7316 45.5992 36.0938 44.6875 36.0938C43.7758 36.0938 42.9015 35.7316 42.2568 35.0869C41.6122 34.4423 41.25 33.5679 41.25 32.6562C41.25 31.7446 41.6122 30.8702 42.2568 30.2256C42.9015 29.5809 43.7758 29.2188 44.6875 29.2188Z" fill="#9E9EBB"/>
</svg>
