<svg width="22" height="26" viewBox="0 0 22 26" fill="none" xmlns="http://www.w3.org/2000/svg">
<path d="M12.2912 2.32324H5.60331C4.74623 2.32324 4.04895 3.02052 4.04895 3.87761V7.47246C4.04895 8.32955 4.74623 9.02682 5.60331 9.02682H12.2913C13.1483 9.02682 13.8456 8.32955 13.8456 7.47246V3.87761C13.8456 3.02047 13.1483 2.32324 12.2912 2.32324ZM12.1499 7.33109H5.74464V4.01883H12.1499V7.33109Z" fill="#FFCB69"/>
<path d="M21.8479 4.31326L20.4921 1.65572C20.2792 1.23861 19.7687 1.07311 19.3515 1.28583C18.9344 1.49866 18.7688 2.00926 18.9816 2.42633L19.9657 4.3552C18.472 4.83717 17.3881 6.24015 17.3881 7.89217V10.6644C17.3881 11.1327 17.7677 11.5123 18.236 11.5123H20.2449V14.3524C20.2449 15.769 19.0924 16.9214 17.6759 16.9214H16.2997V2.0831C16.2997 0.934477 15.3653 0 14.2167 0H4.21962C2.77235 0 1.59489 1.17741 1.59489 2.62468V21.8678C0.681078 22.0882 0 22.912 0 23.8925V25.1522C0 25.6204 0.37959 26 0.847844 26H17.0469C17.5151 26 17.8947 25.6204 17.8947 25.1522V23.8926C17.8947 22.9121 17.2136 22.0882 16.2998 21.8678V18.6172H17.676C20.0276 18.6172 21.9406 16.704 21.9406 14.3525C21.9406 14.3443 21.9406 4.69859 21.9406 4.69859C21.9406 4.56457 21.9088 4.43254 21.8479 4.31326ZM3.29052 2.62468C3.29052 2.1124 3.70734 1.69569 4.21957 1.69569H14.2167C14.4303 1.69569 14.6041 1.86951 14.6041 2.0831V21.8095H3.29057L3.29052 2.62468ZM1.69564 24.3043V23.8926C1.69564 23.679 1.86946 23.5052 2.08305 23.5052H2.44268H15.4519H15.8115C16.0251 23.5052 16.1989 23.679 16.1989 23.8926V24.3044H1.69564V24.3043ZM20.2449 9.81662H19.0838V7.89222C19.0838 7.08536 19.5594 6.38782 20.2449 6.0643V9.81662Z" fill="#FFCB69"/>
</svg>
