<svg width="26" height="24" viewBox="0 0 26 24" fill="none" xmlns="http://www.w3.org/2000/svg">
<path d="M24.3584 5.81719C24.0793 4.70625 23.2595 3.83438 22.2181 3.53906C20.3305 3 12.7619 3 12.7619 3C12.7619 3 5.19341 3 3.30571 3.53906C2.26438 3.83438 1.4446 4.70625 1.16544 5.81719C0.660278 7.82812 0.660278 12.0187 0.660278 12.0187C0.660278 12.0187 0.660278 16.2094 1.16544 18.2203C1.4446 19.3313 2.26438 20.1656 3.30571 20.4609C5.19341 21 12.7619 21 12.7619 21C12.7619 21 20.3305 21 22.2181 20.4609C23.2595 20.1656 24.0793 19.3266 24.3584 18.2203C24.8636 16.2094 24.8636 12.0187 24.8636 12.0187C24.8636 12.0187 24.8636 7.82812 24.3584 5.81719ZM10.2893 15.825V8.2125L16.6127 12.0187L10.2893 15.825Z" fill="white"/>
</svg>
